<svg xmlns="http://www.w3.org/2000/svg" viewBox="0 0 256 256" role="img" aria-labelledby="title desc">
  <title id="title">LuminaDE Panel Icon</title>
  <desc id="desc">Top panel bar with workspaces and status widgets.</desc>
  <defs>
    <linearGradient id="panelBg" x1="0" y1="0" x2="1" y2="1">
      <stop offset="0%" stop-color="#0a1824"/>
      <stop offset="100%" stop-color="#193649"/>
    </linearGradient>
    <linearGradient id="accent" x1="0" y1="0" x2="1" y2="0">
      <stop offset="0%" stop-color="#5ae4ff"/>
      <stop offset="100%" stop-color="#78ffc4"/>
    </linearGradient>
  </defs>

  <rect x="16" y="26" width="224" height="204" rx="36" fill="url(#panelBg)"/>
  <rect x="30" y="44" width="196" height="34" rx="17" fill="#0f2435"/>
  <rect x="40" y="52" width="20" height="18" rx="9" fill="url(#accent)"/>
  <rect x="66" y="52" width="20" height="18" rx="9" fill="#305266"/>
  <rect x="92" y="52" width="20" height="18" rx="9" fill="#305266"/>
  <rect x="118" y="52" width="20" height="18" rx="9" fill="#305266"/>
  <rect x="146" y="52" width="40" height="18" rx="9" fill="#223b4f"/>
  <rect x="192" y="52" width="24" height="18" rx="9" fill="#2a4458"/>

  <rect x="40" y="102" width="82" height="96" rx="16" fill="#122b3c"/>
  <rect x="134" y="102" width="82" height="96" rx="16" fill="#122b3c"/>
  <path d="M58 128h46v10H58zm0 20h56v10H58z" fill="#5bcfff" opacity="0.9"/>
  <path d="M150 132h50v10h-50zm0 20h32v10h-32z" fill="#8df5ce" opacity="0.9"/>
</svg>
