<svg xmlns="http://www.w3.org/2000/svg" viewBox="0 0 256 256" role="img" aria-labelledby="title desc">
  <title id="title">LuminaDE Launcher Icon</title>
  <desc id="desc">Search panel tile with magnifier and result rows.</desc>
  <defs>
    <linearGradient id="launchBg" x1="0" y1="0" x2="1" y2="1">
      <stop offset="0%" stop-color="#07131f"/>
      <stop offset="100%" stop-color="#1a3950"/>
    </linearGradient>
    <linearGradient id="launchAccent" x1="0" y1="0" x2="1" y2="0">
      <stop offset="0%" stop-color="#5ae4ff"/>
      <stop offset="100%" stop-color="#78ffc4"/>
    </linearGradient>
  </defs>

  <rect x="20" y="20" width="216" height="216" rx="44" fill="url(#launchBg)"/>
  <rect x="44" y="52" width="168" height="40" rx="20" fill="#102638"/>
  <circle cx="70" cy="72" r="10" fill="none" stroke="url(#launchAccent)" stroke-width="6"/>
  <path d="M78 80l10 10" stroke="url(#launchAccent)" stroke-width="6" stroke-linecap="round"/>
  <rect x="96" y="66" width="92" height="12" rx="6" fill="#33566a"/>

  <rect x="44" y="112" width="168" height="24" rx="12" fill="#123044"/>
  <rect x="44" y="146" width="168" height="24" rx="12" fill="#123044"/>
  <rect x="44" y="180" width="132" height="24" rx="12" fill="#123044"/>
  <rect x="54" y="118" width="62" height="12" rx="6" fill="url(#launchAccent)"/>
  <rect x="54" y="152" width="102" height="12" rx="6" fill="#7de8ff" opacity="0.92"/>
  <rect x="54" y="186" width="84" height="12" rx="6" fill="#8df5ce" opacity="0.9"/>
</svg>
