<svg xmlns="http://www.w3.org/2000/svg" viewBox="0 0 256 256" role="img" aria-labelledby="title desc">
  <title id="title">LuminaDE Keyboard Icon</title>
  <desc id="desc">Keyboard glyph for input settings.</desc>
  <defs>
    <linearGradient id="bg" x1="0" y1="0" x2="1" y2="1"><stop offset="0%" stop-color="#081520"/><stop offset="100%" stop-color="#19394f"/></linearGradient>
    <linearGradient id="ac" x1="0" y1="0" x2="1" y2="1"><stop offset="0%" stop-color="#63e7ff"/><stop offset="100%" stop-color="#8affd9"/></linearGradient>
  </defs>
  <rect x="20" y="20" width="216" height="216" rx="44" fill="url(#bg)"/>
  <rect x="44" y="86" width="168" height="84" rx="14" fill="none" stroke="url(#ac)" stroke-width="10"/>
  <g fill="url(#ac)">
    <rect x="58" y="100" width="16" height="12" rx="4"/><rect x="80" y="100" width="16" height="12" rx="4"/><rect x="102" y="100" width="16" height="12" rx="4"/><rect x="124" y="100" width="16" height="12" rx="4"/><rect x="146" y="100" width="16" height="12" rx="4"/><rect x="168" y="100" width="16" height="12" rx="4"/>
    <rect x="58" y="120" width="20" height="12" rx="4"/><rect x="84" y="120" width="20" height="12" rx="4"/><rect x="110" y="120" width="20" height="12" rx="4"/><rect x="136" y="120" width="20" height="12" rx="4"/><rect x="162" y="120" width="20" height="12" rx="4"/>
    <rect x="72" y="140" width="112" height="12" rx="6"/>
  </g>
</svg>
