<svg xmlns="http://www.w3.org/2000/svg" viewBox="0 0 256 256" role="img" aria-labelledby="title desc">
  <title id="title">LuminaDE Suspend Icon</title>
  <desc id="desc">Crescent moon with small stars for suspend action.</desc>
  <defs>
    <linearGradient id="bg" x1="0" y1="0" x2="1" y2="1">
      <stop offset="0%" stop-color="#081520"/>
      <stop offset="100%" stop-color="#1b3b51"/>
    </linearGradient>
    <linearGradient id="ac" x1="0" y1="0" x2="1" y2="1">
      <stop offset="0%" stop-color="#63e7ff"/>
      <stop offset="100%" stop-color="#8affd8"/>
    </linearGradient>
  </defs>
  <rect x="20" y="20" width="216" height="216" rx="44" fill="url(#bg)"/>
  <path d="M158 70c-30 10-50 38-50 70 0 34 22 62 54 72-11 6-24 9-37 7-36-5-62-38-57-74 5-36 38-62 74-57 13 2 24 7 34 14-5-12-11-22-18-32z" fill="url(#ac)"/>
  <circle cx="170" cy="80" r="6" fill="#a4ffe6"/>
  <path d="M84 84l6 2 2 6 2-6 6-2-6-2-2-6-2 6z" fill="#98ffe0"/>
</svg>
