<svg xmlns="http://www.w3.org/2000/svg" viewBox="0 0 24 24" role="img" aria-label="LuminaDE settings symbolic">
  <g fill="none" stroke="currentColor" stroke-width="1.8" stroke-linecap="round" stroke-linejoin="round">
    <circle cx="12" cy="12" r="3.2"/>
    <path d="M19.4 13.5l1.1-1.5-1.1-1.5-1.8.2a6.4 6.4 0 0 0-.8-1.9l1.1-1.5-1.5-1.1-1.5 1.1a6.4 6.4 0 0 0-1.9-.8l-.2-1.8h-1.9l-.2 1.8a6.4 6.4 0 0 0-1.9.8L6.1 6.2 4.6 7.3l1.1 1.5a6.4 6.4 0 0 0-.8 1.9l-1.8.2L2 12l1.1 1.5 1.8-.2a6.4 6.4 0 0 0 .8 1.9l-1.1 1.5 1.5 1.1 1.5-1.1a6.4 6.4 0 0 0 1.9.8l.2 1.8h1.9l.2-1.8a6.4 6.4 0 0 0 1.9-.8l1.5 1.1 1.5-1.1-1.1-1.5a6.4 6.4 0 0 0 .8-1.9z"/>
  </g>
</svg>
